# Blender v2.76 (sub 0) OBJ File: 'bauhaus.blend'
# www.blender.org
mtllib bauhaus-corner.001.mtl
o bauhaus-corner.001
v -1.500000 -1.500000 1.500000
v -1.500000 1.500000 1.500000
v -1.500000 -1.500000 -1.500000
v -1.500000 1.500000 -1.500000
v 1.500000 -1.500000 0.000000
v 1.500000 1.500000 1.500000
v 1.500000 -1.500000 -1.500000
v 1.500000 1.500000 -1.500000
v -1.500000 1.500000 0.000000
v -1.500000 -1.500000 0.000000
v 1.500000 1.500000 0.000000
v 1.500000 -1.500000 0.000000
v -1.500000 0.000000 1.500000
v -1.500000 0.000000 -1.500000
v 1.500000 0.000000 -1.500000
v 1.500000 0.000000 1.500000
v 1.500000 0.000000 0.000000
v 0.000000 1.500000 -1.500000
v 0.000000 -1.500000 -1.500000
v 0.000000 1.500000 1.500000
v 0.000000 -1.500000 1.500000
v 0.000000 -1.500000 0.000000
v 0.000000 0.000000 1.500000
v 0.000000 -1.500000 1.500000
v 0.000000 -1.500000 0.000000
v 1.500000 0.000000 0.000000
v 0.000000 0.000000 1.500000
v 0.000000 0.000000 0.000000
vn 1.000000 0.000000 0.000000
vn 0.000000 0.000000 1.000000
vn -1.000000 0.000000 0.000000
vn 0.000000 -1.000000 0.000000
vn 0.000000 0.000000 -1.000000
vn 0.000000 1.000000 0.000000
usemtl m.bauhaus-corner.001
s off
f 17//1 12//1 7//1 15//1 8//1 11//1 6//1 16//1
f 25//2 5//2 26//2 28//2
f 14//3 3//3 10//3 1//3 13//3 2//3 9//3 4//3
f 21//2 22//2 25//2 24//2
f 19//4 7//4 12//4 22//4 21//4 1//4 10//4 3//4
f 13//2 1//2 21//2 23//2 16//2 6//2 20//2 2//2
f 15//5 7//5 19//5 3//5 14//5 4//5 18//5 8//5
f 22//2 12//2 5//2 25//2
f 24//1 25//1 28//1 27//1
f 16//4 23//4 27//4 28//4 26//4 17//4
f 18//6 4//6 9//6 2//6 20//6 6//6 11//6 8//6
