# Blender v2.76 (sub 0) OBJ File: '00base.blend'
# www.blender.org
mtllib pyramid.001.mtl
o pyramid.001
v 3.500000 0.000000 0.500000
v 4.000000 1.000000 0.000000
v 3.500000 0.000000 -0.500000
v 4.500000 0.000000 0.500000
v 4.500000 0.000000 -0.500000
vn 0.000000 -1.000000 0.000000
vn -0.894400 0.447200 0.000000
vn 0.000000 0.447200 -0.894400
vn 0.894400 0.447200 0.000000
vn 0.000000 0.447200 0.894400
usemtl m.red.001
s off
f 1//1 3//1 5//1 4//1
f 2//2 3//2 1//2
f 2//3 5//3 3//3
f 2//4 4//4 5//4
f 2//5 1//5 4//5
