# Blender v2.76 (sub 0) OBJ File: 'tsimpoukh.blend'
# www.blender.org
mtllib tsimpoukh-wall.002.mtl
o tsimpoukh-wall.002
v -5.500000 4.000004 1.500000
v -5.500000 7.000004 1.500000
v -5.500000 4.000004 -1.500000
v -5.500000 7.000004 -1.500000
v -2.500000 4.000004 1.500000
v -2.500000 7.000004 1.500000
v -2.500000 4.000004 -1.500000
v -2.500000 7.000004 -1.500000
v -5.500000 6.400003 1.500000
v -5.500000 6.400003 -1.500000
v -2.500000 6.400003 -1.500000
v -2.500000 6.400003 1.500000
v -4.500000 6.400003 1.500000
v -3.500000 6.400003 1.500000
v -5.500000 4.400004 -1.500000
v -2.500000 4.400004 -1.500000
v -2.500000 4.400004 1.500000
v -5.500000 4.400004 1.500000
v -5.300000 6.400003 1.500000
v -5.300000 4.400004 1.500000
v -3.500000 6.400003 0.850000
v -5.300000 6.400003 0.850000
v -5.300000 4.400004 0.850000
v -4.500000 6.400003 0.850000
v -5.300000 6.105394 0.850000
v -4.500000 6.105394 0.850000
v -4.500000 4.400004 0.850000
v -3.500000 4.400004 0.850000
v -3.500000 6.105394 0.850000
v -3.464583 6.400003 1.350000
v -2.777500 4.400004 0.925000
v -2.777500 6.400003 0.925000
v -2.777500 4.400004 0.850000
v -2.777500 6.400003 0.850000
v -5.300000 6.027439 0.850000
v -5.300000 6.372369 0.850000
v -5.300000 6.096336 0.850000
v -2.777500 4.400004 1.500000
v -3.500000 4.400004 0.925000
v -4.500000 4.400004 0.925000
v -5.300000 4.400004 0.925000
v -4.500000 6.400003 0.925000
v -5.300000 6.400003 0.925000
v -2.777500 6.400003 1.500000
v -3.500000 6.400003 0.925000
v -2.777500 6.105394 0.850000
v -4.450000 6.105394 0.850000
v -3.547500 6.105394 0.850000
v -4.450000 6.400003 1.500000
v -4.450000 6.400003 0.850000
v -4.450000 4.400004 0.850000
v -4.450000 6.400003 0.925000
v -4.450000 4.400004 0.925000
v -3.547500 6.400003 1.500000
v -3.547500 6.400003 0.850000
v -3.547500 6.400003 0.925000
v -3.547500 4.400004 0.850000
v -3.547500 4.400004 0.925000
v -3.547500 6.067227 0.850000
v -4.450000 6.067227 0.850000
v -2.777500 6.067227 0.850000
v -3.500000 6.067227 0.850000
v -4.500000 6.067227 0.850000
v -5.300000 6.067227 0.850000
v -4.500000 6.067227 0.925000
v -4.500000 6.105394 0.925000
v -5.300000 6.105394 0.925000
v -5.300000 6.067227 0.925000
v -2.777500 6.067227 0.925000
v -2.777500 6.105394 0.925000
v -3.500000 6.105394 0.925000
v -3.500000 6.067227 0.925000
v -3.547500 6.067227 0.925000
v -3.547500 6.105394 0.925000
v -4.450000 6.105394 0.925000
v -4.450000 6.067227 0.925000
v -5.500000 4.400004 2.170088
v -5.500000 4.000004 2.170088
v -2.500000 4.000004 2.170088
v -2.500000 4.400004 2.170088
v -2.777500 4.400004 2.170088
v -5.300000 4.400004 2.170088
vn 0.000000 0.000000 1.000000
vn 0.000000 1.000000 0.000000
vn 0.000000 -1.000000 0.000000
vn 1.000000 0.000000 0.000000
vn 0.000000 0.000000 -1.000000
vn -1.000000 -0.000000 0.000000
usemtl m.wall.001
s off
f 19//1 9//1 18//1 20//1
f 39//2 31//2 33//2 28//2
f 52//3 42//3 24//3 50//3
f 19//4 20//4 41//4 23//4 64//4 22//4 43//4
f 15//5 10//5 4//5 8//5 11//5 16//5
f 33//6 31//6 38//6 44//6 32//6 34//6
f 17//1 12//1 44//1 38//1
f 56//3 52//3 50//3 55//3
f 9//1 12//1 6//1 2//1
f 2//2 6//2 8//2 4//2
f 53//2 58//2 57//2 51//2
f 11//4 8//4 6//4 12//4 17//4 16//4
f 3//5 15//5 16//5 7//5
f 18//6 9//6 2//6 4//6 10//6 15//6
f 48//2 47//2 75//2 74//2
f 60//3 59//3 73//3 76//3
f 61//4 46//4 70//4 69//4
f 41//2 20//2 82//2 81//2 38//2 31//2
f 32//3 45//3 21//3 34//3
f 42//3 43//3 22//3 24//3
f 41//2 40//2 27//2 23//2
f 57//6 58//6 56//6 55//6
f 39//4 28//4 21//4 45//4
f 45//3 56//3 55//3 21//3
f 58//1 39//1 45//1 56//1
f 28//5 57//5 55//5 21//5
f 40//1 53//1 52//1 42//1
f 53//4 51//4 50//4 52//4
f 27//6 40//6 42//6 24//6
f 51//5 27//5 24//5 50//5
f 68//1 65//1 66//1 67//1
f 72//1 69//1 70//1 71//1
f 76//1 73//1 74//1 75//1
f 29//6 62//6 72//6 71//6
f 62//3 61//3 69//3 72//3
f 63//4 26//4 66//4 65//4
f 26//2 25//2 67//2 66//2
f 47//6 60//6 76//6 75//6
f 25//6 64//6 68//6 67//6
f 64//3 63//3 65//3 68//3
f 59//4 48//4 74//4 73//4
f 46//2 29//2 71//2 70//2
f 49//3 13//3 19//3 43//3 42//3 52//3 56//3 45//3 32//3 44//3 14//3 54//3
f 22//1 64//1 37//1 36//1
f 7//4 16//4 17//4 80//4 79//4 5//4
f 15//6 3//6 78//6 77//6
f 17//2 38//2 81//2 80//2
f 20//2 18//2 77//2 82//2
f 79//1 80//1 77//1 78//1
f 1//3 3//3 7//3 5//3 79//3 78//3
usemtl m.glass
f 23//1 27//1 63//1 64//1
f 51//1 57//1 59//1 60//1
f 28//1 33//1 61//1 62//1
f 25//1 26//1 24//1 22//1
f 29//1 46//1 34//1 21//1
f 47//1 48//1 55//1 50//1
l 21 30
l 64 35
