# Blender v2.76 (sub 0) OBJ File: 'tsimpoukh.blend'
# www.blender.org
mtllib tsimpoukh-entrance.001.mtl
o tsimpoukh-entrance.001
v 1.500000 0.000004 -6.500000
v 1.500000 3.000004 -6.500000
v -1.500000 0.000004 -6.500000
v -1.500000 3.000004 -6.500000
v 1.500000 0.000004 -9.500000
v 1.500000 3.000004 -9.500000
v -1.500000 0.000004 -9.500000
v -1.500000 3.000004 -9.500000
v 1.350000 2.400004 -8.535417
v 1.500000 0.000004 -9.168858
v 1.500000 0.000004 -6.831142
v 1.500000 3.000004 -6.831142
v 1.500000 3.000004 -9.168858
v -1.500000 0.000004 -6.831142
v -1.500000 0.000004 -9.168858
v -1.500000 3.000004 -6.831142
v -1.500000 3.000004 -9.168858
v 1.500000 0.150004 -9.500000
v 1.500000 0.150004 -6.500000
v -1.500000 0.150004 -6.500000
v -1.500000 0.150004 -9.500000
v 1.500000 0.150004 -9.168858
v 1.500000 0.150004 -6.831142
v -1.500000 0.150004 -9.168858
v -1.500000 0.150004 -6.831142
v 1.500000 2.715004 -9.500000
v -1.500000 2.715004 -9.500000
v -1.500000 2.715004 -9.168858
v -1.500000 2.715004 -6.831142
v 1.500000 2.715004 -6.500000
v -1.500000 2.715004 -6.500000
v 1.500000 2.715004 -9.168858
v 1.500000 2.715004 -6.831142
v 2.109498 3.000004 -6.831142
v 2.109498 3.000004 -9.168858
v 2.109498 2.715004 -9.168858
v 2.109498 2.715004 -6.831142
v 0.962365 2.715004 -9.168858
v 0.962365 0.150004 -9.168858
v 0.962365 2.715004 -6.831142
v 0.962365 0.150004 -6.831142
vn 0.000000 1.000000 0.000000
vn -1.000000 0.000000 -0.000000
vn 0.000000 -1.000000 0.000000
vn 0.000000 0.000000 -1.000000
vn 0.000000 0.000000 1.000000
vn 1.000000 0.000000 0.000000
usemtl m.wall.001
s off
f 13//1 6//1 8//1 17//1
f 29//2 31//2 4//2 16//2
f 11//3 1//3 3//3 14//3
f 26//4 27//4 8//4 6//4
f 19//5 20//5 3//5 1//5
f 33//6 12//6 2//6 30//6
f 26//6 6//6 13//6 32//6
f 32//4 13//4 35//4 36//4
f 5//3 10//3 15//3 7//3
f 10//3 11//3 14//3 15//3
f 27//2 28//2 17//2 8//2
f 28//2 29//2 16//2 17//2
f 2//1 12//1 16//1 4//1
f 12//1 13//1 17//1 16//1
f 15//2 14//2 25//2 24//2
f 7//2 15//2 24//2 21//2
f 10//6 22//6 23//6 11//6
f 5//6 18//6 22//6 10//6
f 11//6 23//6 19//6 1//6
f 30//5 31//5 20//5 19//5
f 5//4 7//4 21//4 18//4
f 14//2 3//2 20//2 25//2
f 2//5 4//5 31//5 30//5
f 24//2 25//2 29//2 28//2
f 21//2 24//2 28//2 27//2
f 22//5 32//5 38//5 39//5
f 18//6 26//6 32//6 22//6
f 23//6 33//6 30//6 19//6
f 18//4 21//4 27//4 26//4
f 25//2 20//2 31//2 29//2
f 36//6 35//6 34//6 37//6
f 13//1 12//1 34//1 35//1
f 33//3 32//3 36//3 37//3
f 12//5 33//5 37//5 34//5
f 33//4 23//4 41//4 40//4
f 32//3 33//3 40//3 38//3
f 23//1 22//1 39//1 41//1
usemtl m.glass
f 39//6 38//6 40//6 41//6
